<svg width="24" height="25" viewBox="0 0 24 25" fill="none" xmlns="http://www.w3.org/2000/svg">
<path d="M24 12.1778C23.9996 9.88462 23.3422 7.63956 22.1056 5.70841C20.8689 3.77725 19.1048 2.24087 17.0221 1.28115C14.9394 0.32143 12.6254 -0.021437 10.3538 0.29314C8.08235 0.607716 5.94854 1.56656 4.20505 3.05616C2.46156 4.54577 1.18139 6.50374 0.516104 8.6983C-0.149185 10.8929 -0.171736 13.2321 0.451122 15.4391C1.07398 17.646 2.31616 19.6283 4.03061 21.1513C5.74506 22.6742 7.85999 23.674 10.125 24.0323V15.6466H7.0785V12.1778H10.125V9.53406C10.125 6.52656 11.9167 4.8653 14.6572 4.8653C15.5573 4.87779 16.4551 4.956 17.3438 5.0993V8.0528H15.8302C15.5723 8.01855 15.31 8.04278 15.0628 8.12368C14.8155 8.20458 14.5896 8.3401 14.4018 8.52017C14.214 8.70025 14.0691 8.92028 13.978 9.16395C13.8868 9.40762 13.8516 9.66869 13.875 9.9278V12.1778H17.2035L16.671 15.6466H13.875V24.0323C16.6978 23.5858 19.2686 22.1464 21.1248 19.9732C22.9809 17.8 24.0005 15.0358 24 12.1778Z" fill="white" fill-opacity="0.32"/>
</svg>
