<svg width="24" height="25" viewBox="0 0 24 25" fill="none" xmlns="http://www.w3.org/2000/svg">
<g clip-path="url(#clip0_203_1406)">
<path d="M12 2.95176C15 2.95176 15.36 2.96301 16.5458 3.01701C17.2593 3.02543 17.9662 3.15659 18.6353 3.40476C19.1237 3.58508 19.5656 3.87263 19.9283 4.24626C20.3019 4.60894 20.5894 5.05078 20.7698 5.53926C21.0179 6.20836 21.1491 6.91517 21.1575 7.62876C21.2115 8.81676 21.225 9.17676 21.225 12.1768C21.225 15.1768 21.2138 15.5368 21.1598 16.7225C21.1513 17.4361 21.0202 18.1429 20.772 18.812C20.5847 19.297 20.2981 19.7374 19.9305 20.105C19.5629 20.4726 19.1225 20.7592 18.6375 20.9465C17.9684 21.1947 17.2616 21.3258 16.548 21.3343C15.3623 21.3883 15.006 21.3995 12.0023 21.3995C8.9985 21.3995 8.64225 21.3883 7.4565 21.3343C6.74291 21.3258 6.0361 21.1947 5.367 20.9465C4.87852 20.7662 4.43668 20.4786 4.074 20.105C3.70038 19.7423 3.41282 19.3005 3.2325 18.812C2.98434 18.1429 2.85317 17.4361 2.84475 16.7225C2.7885 15.5368 2.775 15.1805 2.775 12.1768C2.775 9.17301 2.78625 8.81676 2.84025 7.63101C2.84867 6.91742 2.97984 6.21061 3.228 5.54151C3.40898 5.05281 3.69731 4.61096 4.07175 4.24851C4.43443 3.87488 4.87627 3.58733 5.36475 3.40701C6.03385 3.15884 6.74066 3.02768 7.45425 3.01926C8.64 2.96526 9 2.95176 12 2.95176ZM12 0.926758C8.9445 0.926758 8.56125 0.939508 7.362 0.994258C6.42842 1.01404 5.5049 1.19154 4.6305 1.51926C3.88032 1.80159 3.20059 2.24383 2.6385 2.81526C2.06626 3.37713 1.62324 4.05688 1.34025 4.80726C1.01253 5.68166 0.83503 6.60517 0.81525 7.53876C0.76275 8.73801 0.75 9.12126 0.75 12.1768C0.75 15.2323 0.76275 15.6155 0.8175 16.8148C0.83728 17.7483 1.01478 18.6719 1.3425 19.5463C1.62549 20.2966 2.06851 20.9764 2.64075 21.5383C3.20262 22.1105 3.88237 22.5535 4.63275 22.8365C5.50715 23.1642 6.43067 23.3417 7.36425 23.3615C8.56425 23.4163 8.94675 23.429 12.0023 23.429C15.0578 23.429 15.441 23.4163 16.6403 23.3615C17.5738 23.3417 18.4974 23.1642 19.3718 22.8365C20.1188 22.547 20.7972 22.1048 21.3638 21.5383C21.9303 20.9717 22.3724 20.2933 22.662 19.5463C22.9897 18.6719 23.1672 17.7483 23.187 16.8148C23.2418 15.6148 23.2545 15.2323 23.2545 12.1768C23.2545 9.12126 23.2418 8.73801 23.187 7.53876C23.1672 6.60517 22.9897 5.68166 22.662 4.80726C22.379 4.05688 21.936 3.37713 21.3638 2.81526C20.8019 2.24302 20.1221 1.8 19.3718 1.51701C18.4974 1.18929 17.5738 1.01179 16.6403 0.992008C15.4388 0.939508 15.0555 0.926758 12 0.926758Z" fill="white" fill-opacity="0.32"/>
<path d="M11.9996 6.40137C10.8574 6.40137 9.74089 6.74006 8.79119 7.37463C7.8415 8.0092 7.1013 8.91113 6.66421 9.96637C6.22711 11.0216 6.11275 12.1828 6.33558 13.303C6.55841 14.4233 7.10842 15.4523 7.91607 16.2599C8.72372 17.0676 9.75272 17.6176 10.873 17.8404C11.9932 18.0632 13.1544 17.9489 14.2096 17.5118C15.2649 17.0747 16.1668 16.3345 16.8013 15.3848C17.4359 14.4351 17.7746 13.3186 17.7746 12.1764C17.7746 10.6447 17.1662 9.17585 16.0832 8.09283C15.0001 7.0098 13.5312 6.40137 11.9996 6.40137ZM11.9996 15.9264C11.2579 15.9264 10.5329 15.7064 9.91622 15.2944C9.29954 14.8823 8.81889 14.2967 8.53506 13.6114C8.25123 12.9262 8.17697 12.1722 8.32167 11.4448C8.46636 10.7174 8.82351 10.0492 9.34796 9.52472C9.87241 9.00027 10.5406 8.64312 11.268 8.49842C11.9955 8.35373 12.7495 8.42799 13.4347 8.71182C14.1199 8.99565 14.7056 9.47629 15.1176 10.093C15.5297 10.7097 15.7496 11.4347 15.7496 12.1764C15.7496 13.1709 15.3545 14.1248 14.6513 14.828C13.948 15.5313 12.9942 15.9264 11.9996 15.9264Z" fill="white" fill-opacity="0.32"/>
<path d="M18.0053 7.52129C18.7509 7.52129 19.3553 6.91687 19.3553 6.17129C19.3553 5.4257 18.7509 4.82129 18.0053 4.82129C17.2597 4.82129 16.6553 5.4257 16.6553 6.17129C16.6553 6.91687 17.2597 7.52129 18.0053 7.52129Z" fill="white" fill-opacity="0.32"/>
</g>
<defs>
<clipPath id="clip0_203_1406">
<rect width="24" height="24" fill="white" transform="translate(0 0.176758)"/>
</clipPath>
</defs>
</svg>
