<svg xmlns="http://www.w3.org/2000/svg" viewBox="0 0 1319.75 1259.83"><defs><style>.a{opacity:0.5;}</style></defs><g class="a"><path d="M544.68,769.83c.05-93.81-.63-187.63.42-281.43.37-33.43-7.48-78.95,39.72-83.37,44.21-4.14,106.24-32,129.75,27,24.65,61.94,46.29,29.78,73.78,10.2,52.51-37.42,110.71-56.44,175.52-56.16,148.81.63,235.51,78.69,240.7,228,5.07,145.75-1.13,291.89,4,437.64,2.58,74-32.43,85-94.35,84.9-65.58-.07-105.82-11.9-102.75-90.92,4.44-114.47,2.54-229.3.09-343.9C1009.08,588,972.7,537.72,897,534.55c-83.44-3.5-148.1,58.66-154.49,162.69-7,114.26-7.27,229.23-4.13,343.72,2,73.37-26.56,96.12-98,96.08s-100.67-22.67-96.82-96.27C548.22,950.69,544.63,860.16,544.68,769.83Z"/><path d="M346.71,771.88c0,93.74-2,187.55.66,281.22,2.08,73.82-39.49,82.75-99.91,83.57-63.6.87-96.44-14.56-95.21-86.54Q157,769,152.09,487.68c-1.17-69.65,27.43-89.34,93.16-89.18,67.16.17,105.58,15.21,102.36,92.17C343.7,584.26,346.68,678.13,346.71,771.88Z"/><path d="M252.1,300.13c-59.48,6.84-102.65-.85-99.95-78.42,3-85.24,8.54-95.48,94.08-96,88.71-.55,97.56,10.41,100.51,90.46C349.38,287.42,316.16,309.8,252.1,300.13Z"/></g></svg>